{
	"patcher" : 	{
		"fileversion" : 1,
		"rect" : [ 25.0, 69.0, 1262.0, 893.0 ],
		"bglocked" : 0,
		"defrect" : [ 25.0, 69.0, 1262.0, 893.0 ],
		"openrect" : [ 0.0, 0.0, 0.0, 0.0 ],
		"openinpresentation" : 0,
		"default_fontsize" : 12.0,
		"default_fontface" : 0,
		"default_fontname" : "Arial",
		"gridonopen" : 0,
		"gridsize" : [ 15.0, 15.0 ],
		"gridsnaponopen" : 0,
		"toolbarvisible" : 1,
		"boxanimatetime" : 200,
		"imprint" : 0,
		"enablehscroll" : 1,
		"enablevscroll" : 1,
		"devicewidth" : 0.0,
		"boxes" : [ 			{
				"box" : 				{
					"maxclass" : "message",
					"text" : "57",
					"outlettype" : [ "" ],
					"patching_rect" : [ 705.0, 214.0, 32.5, 18.0 ],
					"id" : "obj-39",
					"fontname" : "Arial",
					"fontsize" : 12.0,
					"numinlets" : 2,
					"numoutlets" : 1
				}

			}
, 			{
				"box" : 				{
					"maxclass" : "newobj",
					"text" : "r lb$0-siren1",
					"outlettype" : [ "" ],
					"patching_rect" : [ 678.0, 181.0, 77.0, 20.0 ],
					"id" : "obj-44",
					"fontname" : "Arial",
					"fontsize" : 12.0,
					"numinlets" : 0,
					"numoutlets" : 1
				}

			}
, 			{
				"box" : 				{
					"maxclass" : "message",
					"text" : "524",
					"outlettype" : [ "" ],
					"patching_rect" : [ 625.0, 88.0, 32.5, 18.0 ],
					"id" : "obj-37",
					"fontname" : "Arial",
					"fontsize" : 12.0,
					"numinlets" : 2,
					"numoutlets" : 1
				}

			}
, 			{
				"box" : 				{
					"maxclass" : "newobj",
					"text" : "r lb$0-siren1",
					"outlettype" : [ "" ],
					"patching_rect" : [ 598.0, 55.0, 77.0, 20.0 ],
					"id" : "obj-38",
					"fontname" : "Arial",
					"fontsize" : 12.0,
					"numinlets" : 0,
					"numoutlets" : 1
				}

			}
, 			{
				"box" : 				{
					"maxclass" : "message",
					"text" : "1024",
					"outlettype" : [ "" ],
					"patching_rect" : [ 35.0, 193.0, 37.0, 18.0 ],
					"id" : "obj-35",
					"fontname" : "Arial",
					"fontsize" : 12.0,
					"numinlets" : 2,
					"numoutlets" : 1
				}

			}
, 			{
				"box" : 				{
					"maxclass" : "newobj",
					"text" : "r lb$0-siren1",
					"outlettype" : [ "" ],
					"patching_rect" : [ 8.0, 160.0, 77.0, 20.0 ],
					"id" : "obj-36",
					"fontname" : "Arial",
					"fontsize" : 12.0,
					"numinlets" : 0,
					"numoutlets" : 1
				}

			}
, 			{
				"box" : 				{
					"maxclass" : "message",
					"text" : "1051",
					"outlettype" : [ "" ],
					"patching_rect" : [ 307.0, 183.0, 37.0, 18.0 ],
					"id" : "obj-31",
					"fontname" : "Arial",
					"fontsize" : 12.0,
					"numinlets" : 2,
					"numoutlets" : 1
				}

			}
, 			{
				"box" : 				{
					"maxclass" : "newobj",
					"text" : "r lb$0-siren1",
					"outlettype" : [ "" ],
					"patching_rect" : [ 280.0, 150.0, 77.0, 20.0 ],
					"id" : "obj-34",
					"fontname" : "Arial",
					"fontsize" : 12.0,
					"numinlets" : 0,
					"numoutlets" : 1
				}

			}
, 			{
				"box" : 				{
					"maxclass" : "newobj",
					"text" : "s lb$0-siren1",
					"patching_rect" : [ 347.0, 90.0, 79.0, 20.0 ],
					"id" : "obj-28",
					"fontname" : "Arial",
					"fontsize" : 12.0,
					"numinlets" : 1,
					"numoutlets" : 0
				}

			}
, 			{
				"box" : 				{
					"maxclass" : "newobj",
					"text" : "loadbang",
					"outlettype" : [ "bang" ],
					"patching_rect" : [ 331.0, 52.0, 60.0, 20.0 ],
					"id" : "obj-21",
					"fontname" : "Arial",
					"fontsize" : 12.0,
					"numinlets" : 1,
					"numoutlets" : 1
				}

			}
, 			{
				"box" : 				{
					"maxclass" : "message",
					"text" : "1726",
					"outlettype" : [ "" ],
					"patching_rect" : [ 220.0, 144.0, 37.0, 18.0 ],
					"id" : "obj-16",
					"fontname" : "Arial",
					"fontsize" : 12.0,
					"numinlets" : 2,
					"numoutlets" : 1
				}

			}
, 			{
				"box" : 				{
					"maxclass" : "newobj",
					"text" : "r lb$0-siren1",
					"outlettype" : [ "" ],
					"patching_rect" : [ 193.0, 111.0, 77.0, 20.0 ],
					"id" : "obj-3",
					"fontname" : "Arial",
					"fontsize" : 12.0,
					"numinlets" : 0,
					"numoutlets" : 1
				}

			}
, 			{
				"box" : 				{
					"maxclass" : "message",
					"text" : "0",
					"outlettype" : [ "" ],
					"patching_rect" : [ 773.0, 270.0, 32.5, 18.0 ],
					"id" : "obj-47",
					"fontname" : "Arial",
					"fontsize" : 12.0,
					"numinlets" : 2,
					"numoutlets" : 1
				}

			}
, 			{
				"box" : 				{
					"maxclass" : "inlet",
					"outlettype" : [ "" ],
					"patching_rect" : [ 851.0, 300.0, 25.0, 25.0 ],
					"id" : "obj-46",
					"numinlets" : 0,
					"numoutlets" : 1,
					"comment" : ""
				}

			}
, 			{
				"box" : 				{
					"maxclass" : "newobj",
					"text" : "scale 0 127 0. 1.",
					"outlettype" : [ "" ],
					"patching_rect" : [ 839.0, 350.0, 99.0, 20.0 ],
					"id" : "obj-45",
					"fontname" : "Arial",
					"fontsize" : 12.0,
					"numinlets" : 6,
					"numoutlets" : 1
				}

			}
, 			{
				"box" : 				{
					"maxclass" : "number",
					"outlettype" : [ "int", "bang" ],
					"patching_rect" : [ 665.0, 282.0, 50.0, 20.0 ],
					"id" : "obj-43",
					"fontname" : "Arial",
					"fontsize" : 12.0,
					"numinlets" : 1,
					"numoutlets" : 2
				}

			}
, 			{
				"box" : 				{
					"maxclass" : "flonum",
					"outlettype" : [ "float", "bang" ],
					"patching_rect" : [ 647.0, 212.0, 50.0, 20.0 ],
					"id" : "obj-42",
					"fontname" : "Arial",
					"fontsize" : 12.0,
					"numinlets" : 1,
					"numoutlets" : 2
				}

			}
, 			{
				"box" : 				{
					"maxclass" : "newobj",
					"text" : "* 0.01",
					"outlettype" : [ "float" ],
					"patching_rect" : [ 638.0, 179.0, 42.0, 20.0 ],
					"id" : "obj-41",
					"fontname" : "Arial",
					"fontsize" : 12.0,
					"numinlets" : 2,
					"numoutlets" : 1
				}

			}
, 			{
				"box" : 				{
					"maxclass" : "number",
					"outlettype" : [ "int", "bang" ],
					"patching_rect" : [ 617.0, 127.0, 50.0, 20.0 ],
					"id" : "obj-40",
					"fontname" : "Arial",
					"fontsize" : 12.0,
					"numinlets" : 1,
					"numoutlets" : 2
				}

			}
, 			{
				"box" : 				{
					"maxclass" : "newobj",
					"text" : "reson~ 5.24 718 57",
					"outlettype" : [ "signal" ],
					"patching_rect" : [ 483.0, 261.0, 114.0, 20.0 ],
					"id" : "obj-33",
					"fontname" : "Arial",
					"fontsize" : 12.0,
					"numinlets" : 4,
					"numoutlets" : 1
				}

			}
, 			{
				"box" : 				{
					"maxclass" : "number",
					"outlettype" : [ "int", "bang" ],
					"patching_rect" : [ 58.0, 235.0, 50.0, 20.0 ],
					"id" : "obj-32",
					"fontname" : "Arial",
					"fontsize" : 12.0,
					"numinlets" : 1,
					"numoutlets" : 2
				}

			}
, 			{
				"box" : 				{
					"maxclass" : "newobj",
					"text" : "*~ -1024",
					"outlettype" : [ "signal" ],
					"patching_rect" : [ 6.0, 255.0, 56.0, 20.0 ],
					"id" : "obj-30",
					"fontname" : "Arial",
					"fontsize" : 12.0,
					"numinlets" : 2,
					"numoutlets" : 1
				}

			}
, 			{
				"box" : 				{
					"maxclass" : "newobj",
					"text" : "+~",
					"outlettype" : [ "signal" ],
					"patching_rect" : [ 64.0, 282.0, 32.5, 20.0 ],
					"id" : "obj-29",
					"fontname" : "Arial",
					"fontsize" : 12.0,
					"numinlets" : 2,
					"numoutlets" : 1
				}

			}
, 			{
				"box" : 				{
					"maxclass" : "number",
					"outlettype" : [ "int", "bang" ],
					"patching_rect" : [ 219.0, 213.0, 50.0, 20.0 ],
					"id" : "obj-27",
					"fontname" : "Arial",
					"fontsize" : 12.0,
					"numinlets" : 1,
					"numoutlets" : 2
				}

			}
, 			{
				"box" : 				{
					"maxclass" : "number",
					"outlettype" : [ "int", "bang" ],
					"patching_rect" : [ 213.0, 183.0, 50.0, 20.0 ],
					"id" : "obj-26",
					"fontname" : "Arial",
					"fontsize" : 12.0,
					"numinlets" : 1,
					"numoutlets" : 2
				}

			}
, 			{
				"box" : 				{
					"maxclass" : "newobj",
					"text" : "+~ 1051",
					"outlettype" : [ "signal" ],
					"patching_rect" : [ 135.0, 239.0, 55.0, 20.0 ],
					"id" : "obj-25",
					"fontname" : "Arial",
					"fontsize" : 12.0,
					"numinlets" : 2,
					"numoutlets" : 1
				}

			}
, 			{
				"box" : 				{
					"maxclass" : "spectroscope~",
					"outlettype" : [ "" ],
					"patching_rect" : [ 80.0, 504.0, 300.0, 100.0 ],
					"id" : "obj-24",
					"numinlets" : 2,
					"domain" : [ 0.0, 20000.0 ],
					"numoutlets" : 1
				}

			}
, 			{
				"box" : 				{
					"maxclass" : "newobj",
					"text" : "-~",
					"outlettype" : [ "signal" ],
					"patching_rect" : [ 77.0, 409.0, 32.5, 20.0 ],
					"id" : "obj-23",
					"fontname" : "Arial",
					"fontsize" : 12.0,
					"numinlets" : 2,
					"numoutlets" : 1
				}

			}
, 			{
				"box" : 				{
					"maxclass" : "newobj",
					"text" : "onepole~ 100 Hz",
					"outlettype" : [ "signal" ],
					"patching_rect" : [ 97.0, 385.0, 102.0, 20.0 ],
					"id" : "obj-22",
					"fontname" : "Arial",
					"fontsize" : 12.0,
					"numinlets" : 2,
					"numoutlets" : 1
				}

			}
, 			{
				"box" : 				{
					"maxclass" : "newobj",
					"text" : "phasor~",
					"outlettype" : [ "signal" ],
					"patching_rect" : [ 37.0, 310.0, 54.0, 20.0 ],
					"id" : "obj-20",
					"fontname" : "Arial",
					"fontsize" : 12.0,
					"numinlets" : 2,
					"numoutlets" : 1
				}

			}
, 			{
				"box" : 				{
					"maxclass" : "newobj",
					"text" : "*~ 1726",
					"outlettype" : [ "signal" ],
					"patching_rect" : [ 122.0, 207.0, 52.0, 20.0 ],
					"id" : "obj-19",
					"fontname" : "Arial",
					"fontsize" : 12.0,
					"numinlets" : 2,
					"numoutlets" : 1
				}

			}
, 			{
				"box" : 				{
					"maxclass" : "newobj",
					"text" : "* 0.01",
					"outlettype" : [ "float" ],
					"patching_rect" : [ 763.0, 354.0, 42.0, 20.0 ],
					"id" : "obj-18",
					"fontname" : "Arial",
					"fontsize" : 12.0,
					"numinlets" : 2,
					"numoutlets" : 1
				}

			}
, 			{
				"box" : 				{
					"maxclass" : "number",
					"outlettype" : [ "int", "bang" ],
					"patching_rect" : [ 761.0, 325.0, 50.0, 20.0 ],
					"id" : "obj-17",
					"fontname" : "Arial",
					"fontsize" : 12.0,
					"numinlets" : 1,
					"numoutlets" : 2
				}

			}
, 			{
				"box" : 				{
					"maxclass" : "number~",
					"outlettype" : [ "signal", "float" ],
					"patching_rect" : [ 462.0, 487.0, 56.0, 20.0 ],
					"mode" : 2,
					"id" : "obj-15",
					"fontname" : "Arial",
					"sig" : 0.0,
					"fontsize" : 12.0,
					"numinlets" : 2,
					"numoutlets" : 2
				}

			}
, 			{
				"box" : 				{
					"maxclass" : "message",
					"text" : "$1 40",
					"outlettype" : [ "" ],
					"patching_rect" : [ 759.0, 383.0, 41.0, 18.0 ],
					"id" : "obj-14",
					"fontname" : "Arial",
					"fontsize" : 12.0,
					"numinlets" : 2,
					"numoutlets" : 1
				}

			}
, 			{
				"box" : 				{
					"maxclass" : "newobj",
					"text" : "line~",
					"outlettype" : [ "signal", "bang" ],
					"patching_rect" : [ 441.0, 363.0, 36.0, 20.0 ],
					"id" : "obj-13",
					"fontname" : "Arial",
					"fontsize" : 12.0,
					"numinlets" : 2,
					"numoutlets" : 2
				}

			}
, 			{
				"box" : 				{
					"maxclass" : "newobj",
					"text" : "*~",
					"outlettype" : [ "signal" ],
					"patching_rect" : [ 409.0, 389.0, 32.5, 20.0 ],
					"id" : "obj-12",
					"fontname" : "Arial",
					"fontsize" : 12.0,
					"numinlets" : 2,
					"numoutlets" : 1
				}

			}
, 			{
				"box" : 				{
					"maxclass" : "newobj",
					"text" : "triangle~",
					"outlettype" : [ "signal" ],
					"patching_rect" : [ 51.0, 337.0, 57.0, 20.0 ],
					"id" : "obj-11",
					"fontname" : "Arial",
					"fontsize" : 12.0,
					"numinlets" : 2,
					"numoutlets" : 1
				}

			}
, 			{
				"box" : 				{
					"maxclass" : "newobj",
					"text" : "* 0.001",
					"outlettype" : [ "float" ],
					"patching_rect" : [ 91.0, 52.0, 49.0, 20.0 ],
					"id" : "obj-10",
					"fontname" : "Arial",
					"fontsize" : 12.0,
					"numinlets" : 2,
					"numoutlets" : 1
				}

			}
, 			{
				"box" : 				{
					"maxclass" : "number",
					"outlettype" : [ "int", "bang" ],
					"patching_rect" : [ 90.0, 25.0, 50.0, 20.0 ],
					"id" : "obj-9",
					"fontname" : "Arial",
					"fontsize" : 12.0,
					"numinlets" : 1,
					"numoutlets" : 2
				}

			}
, 			{
				"box" : 				{
					"maxclass" : "flonum",
					"outlettype" : [ "float", "bang" ],
					"patching_rect" : [ 95.0, 92.0, 50.0, 20.0 ],
					"id" : "obj-8",
					"fontname" : "Arial",
					"fontsize" : 12.0,
					"numinlets" : 1,
					"numoutlets" : 2
				}

			}
, 			{
				"box" : 				{
					"maxclass" : "newobj",
					"text" : "*~",
					"outlettype" : [ "signal" ],
					"patching_rect" : [ 102.0, 175.0, 32.5, 20.0 ],
					"id" : "obj-7",
					"fontname" : "Arial",
					"fontsize" : 12.0,
					"numinlets" : 2,
					"numoutlets" : 1
				}

			}
, 			{
				"box" : 				{
					"maxclass" : "newobj",
					"text" : "phasor~",
					"outlettype" : [ "signal" ],
					"patching_rect" : [ 159.0, 139.0, 54.0, 20.0 ],
					"id" : "obj-6",
					"fontname" : "Arial",
					"fontsize" : 12.0,
					"numinlets" : 2,
					"numoutlets" : 1
				}

			}
, 			{
				"box" : 				{
					"maxclass" : "newobj",
					"text" : "phasor~",
					"outlettype" : [ "signal" ],
					"patching_rect" : [ 100.0, 140.0, 54.0, 20.0 ],
					"id" : "obj-5",
					"fontname" : "Arial",
					"fontsize" : 12.0,
					"numinlets" : 2,
					"numoutlets" : 1
				}

			}
, 			{
				"box" : 				{
					"maxclass" : "newobj",
					"text" : "+~",
					"outlettype" : [ "signal" ],
					"patching_rect" : [ 284.0, 379.0, 32.5, 20.0 ],
					"id" : "obj-4",
					"fontname" : "Arial",
					"fontsize" : 12.0,
					"numinlets" : 2,
					"numoutlets" : 1
				}

			}
, 			{
				"box" : 				{
					"maxclass" : "newobj",
					"text" : "noise~",
					"outlettype" : [ "signal" ],
					"patching_rect" : [ 546.0, 183.0, 46.0, 20.0 ],
					"id" : "obj-2",
					"fontname" : "Arial",
					"fontsize" : 12.0,
					"numinlets" : 1,
					"numoutlets" : 1
				}

			}
, 			{
				"box" : 				{
					"maxclass" : "newobj",
					"text" : "dac~ 1",
					"patching_rect" : [ 507.0, 439.0, 47.0, 20.0 ],
					"id" : "obj-1",
					"fontname" : "Arial",
					"fontsize" : 12.0,
					"numinlets" : 1,
					"numoutlets" : 0
				}

			}
 ],
		"lines" : [ 			{
				"patchline" : 				{
					"source" : [ "obj-39", 0 ],
					"destination" : [ "obj-43", 0 ],
					"hidden" : 0,
					"midpoints" : [  ]
				}

			}
, 			{
				"patchline" : 				{
					"source" : [ "obj-44", 0 ],
					"destination" : [ "obj-39", 0 ],
					"hidden" : 0,
					"midpoints" : [  ]
				}

			}
, 			{
				"patchline" : 				{
					"source" : [ "obj-37", 0 ],
					"destination" : [ "obj-40", 0 ],
					"hidden" : 0,
					"midpoints" : [  ]
				}

			}
, 			{
				"patchline" : 				{
					"source" : [ "obj-38", 0 ],
					"destination" : [ "obj-37", 0 ],
					"hidden" : 0,
					"midpoints" : [  ]
				}

			}
, 			{
				"patchline" : 				{
					"source" : [ "obj-35", 0 ],
					"destination" : [ "obj-32", 0 ],
					"hidden" : 0,
					"midpoints" : [  ]
				}

			}
, 			{
				"patchline" : 				{
					"source" : [ "obj-36", 0 ],
					"destination" : [ "obj-35", 0 ],
					"hidden" : 0,
					"midpoints" : [  ]
				}

			}
, 			{
				"patchline" : 				{
					"source" : [ "obj-31", 0 ],
					"destination" : [ "obj-27", 0 ],
					"hidden" : 0,
					"midpoints" : [  ]
				}

			}
, 			{
				"patchline" : 				{
					"source" : [ "obj-34", 0 ],
					"destination" : [ "obj-31", 0 ],
					"hidden" : 0,
					"midpoints" : [  ]
				}

			}
, 			{
				"patchline" : 				{
					"source" : [ "obj-21", 0 ],
					"destination" : [ "obj-28", 0 ],
					"hidden" : 0,
					"midpoints" : [  ]
				}

			}
, 			{
				"patchline" : 				{
					"source" : [ "obj-16", 0 ],
					"destination" : [ "obj-26", 0 ],
					"hidden" : 0,
					"midpoints" : [  ]
				}

			}
, 			{
				"patchline" : 				{
					"source" : [ "obj-3", 0 ],
					"destination" : [ "obj-16", 0 ],
					"hidden" : 0,
					"midpoints" : [  ]
				}

			}
, 			{
				"patchline" : 				{
					"source" : [ "obj-27", 0 ],
					"destination" : [ "obj-25", 1 ],
					"hidden" : 0,
					"midpoints" : [  ]
				}

			}
, 			{
				"patchline" : 				{
					"source" : [ "obj-26", 0 ],
					"destination" : [ "obj-19", 1 ],
					"hidden" : 0,
					"midpoints" : [  ]
				}

			}
, 			{
				"patchline" : 				{
					"source" : [ "obj-5", 0 ],
					"destination" : [ "obj-7", 0 ],
					"hidden" : 0,
					"midpoints" : [  ]
				}

			}
, 			{
				"patchline" : 				{
					"source" : [ "obj-6", 0 ],
					"destination" : [ "obj-7", 1 ],
					"hidden" : 0,
					"midpoints" : [  ]
				}

			}
, 			{
				"patchline" : 				{
					"source" : [ "obj-9", 0 ],
					"destination" : [ "obj-10", 0 ],
					"hidden" : 0,
					"midpoints" : [  ]
				}

			}
, 			{
				"patchline" : 				{
					"source" : [ "obj-10", 0 ],
					"destination" : [ "obj-8", 0 ],
					"hidden" : 0,
					"midpoints" : [  ]
				}

			}
, 			{
				"patchline" : 				{
					"source" : [ "obj-8", 0 ],
					"destination" : [ "obj-5", 0 ],
					"hidden" : 0,
					"midpoints" : [  ]
				}

			}
, 			{
				"patchline" : 				{
					"source" : [ "obj-8", 0 ],
					"destination" : [ "obj-6", 0 ],
					"hidden" : 0,
					"midpoints" : [  ]
				}

			}
, 			{
				"patchline" : 				{
					"source" : [ "obj-14", 0 ],
					"destination" : [ "obj-13", 0 ],
					"hidden" : 0,
					"midpoints" : [  ]
				}

			}
, 			{
				"patchline" : 				{
					"source" : [ "obj-13", 0 ],
					"destination" : [ "obj-15", 0 ],
					"hidden" : 0,
					"midpoints" : [  ]
				}

			}
, 			{
				"patchline" : 				{
					"source" : [ "obj-17", 0 ],
					"destination" : [ "obj-18", 0 ],
					"hidden" : 0,
					"midpoints" : [  ]
				}

			}
, 			{
				"patchline" : 				{
					"source" : [ "obj-18", 0 ],
					"destination" : [ "obj-14", 0 ],
					"hidden" : 0,
					"midpoints" : [  ]
				}

			}
, 			{
				"patchline" : 				{
					"source" : [ "obj-13", 0 ],
					"destination" : [ "obj-12", 1 ],
					"hidden" : 0,
					"midpoints" : [  ]
				}

			}
, 			{
				"patchline" : 				{
					"source" : [ "obj-20", 0 ],
					"destination" : [ "obj-11", 0 ],
					"hidden" : 0,
					"midpoints" : [  ]
				}

			}
, 			{
				"patchline" : 				{
					"source" : [ "obj-11", 0 ],
					"destination" : [ "obj-23", 0 ],
					"hidden" : 0,
					"midpoints" : [  ]
				}

			}
, 			{
				"patchline" : 				{
					"source" : [ "obj-11", 0 ],
					"destination" : [ "obj-22", 0 ],
					"hidden" : 0,
					"midpoints" : [  ]
				}

			}
, 			{
				"patchline" : 				{
					"source" : [ "obj-22", 0 ],
					"destination" : [ "obj-23", 1 ],
					"hidden" : 0,
					"midpoints" : [  ]
				}

			}
, 			{
				"patchline" : 				{
					"source" : [ "obj-12", 0 ],
					"destination" : [ "obj-1", 0 ],
					"hidden" : 0,
					"midpoints" : [  ]
				}

			}
, 			{
				"patchline" : 				{
					"source" : [ "obj-29", 0 ],
					"destination" : [ "obj-20", 0 ],
					"hidden" : 0,
					"midpoints" : [  ]
				}

			}
, 			{
				"patchline" : 				{
					"source" : [ "obj-23", 0 ],
					"destination" : [ "obj-24", 0 ],
					"hidden" : 0,
					"midpoints" : [  ]
				}

			}
, 			{
				"patchline" : 				{
					"source" : [ "obj-4", 0 ],
					"destination" : [ "obj-12", 0 ],
					"hidden" : 0,
					"midpoints" : [  ]
				}

			}
, 			{
				"patchline" : 				{
					"source" : [ "obj-40", 0 ],
					"destination" : [ "obj-41", 0 ],
					"hidden" : 0,
					"midpoints" : [  ]
				}

			}
, 			{
				"patchline" : 				{
					"source" : [ "obj-41", 0 ],
					"destination" : [ "obj-42", 0 ],
					"hidden" : 0,
					"midpoints" : [  ]
				}

			}
, 			{
				"patchline" : 				{
					"source" : [ "obj-23", 0 ],
					"destination" : [ "obj-4", 0 ],
					"hidden" : 0,
					"midpoints" : [  ]
				}

			}
, 			{
				"patchline" : 				{
					"source" : [ "obj-7", 0 ],
					"destination" : [ "obj-19", 0 ],
					"hidden" : 0,
					"midpoints" : [  ]
				}

			}
, 			{
				"patchline" : 				{
					"source" : [ "obj-19", 0 ],
					"destination" : [ "obj-25", 0 ],
					"hidden" : 0,
					"midpoints" : [  ]
				}

			}
, 			{
				"patchline" : 				{
					"source" : [ "obj-25", 0 ],
					"destination" : [ "obj-29", 1 ],
					"hidden" : 0,
					"midpoints" : [  ]
				}

			}
, 			{
				"patchline" : 				{
					"source" : [ "obj-32", 0 ],
					"destination" : [ "obj-30", 1 ],
					"hidden" : 0,
					"midpoints" : [  ]
				}

			}
, 			{
				"patchline" : 				{
					"source" : [ "obj-30", 0 ],
					"destination" : [ "obj-29", 0 ],
					"hidden" : 0,
					"midpoints" : [  ]
				}

			}
, 			{
				"patchline" : 				{
					"source" : [ "obj-7", 0 ],
					"destination" : [ "obj-30", 0 ],
					"hidden" : 0,
					"midpoints" : [  ]
				}

			}
, 			{
				"patchline" : 				{
					"source" : [ "obj-25", 0 ],
					"destination" : [ "obj-33", 2 ],
					"hidden" : 0,
					"midpoints" : [  ]
				}

			}
, 			{
				"patchline" : 				{
					"source" : [ "obj-43", 0 ],
					"destination" : [ "obj-33", 3 ],
					"hidden" : 0,
					"midpoints" : [  ]
				}

			}
, 			{
				"patchline" : 				{
					"source" : [ "obj-42", 0 ],
					"destination" : [ "obj-33", 1 ],
					"hidden" : 0,
					"midpoints" : [  ]
				}

			}
, 			{
				"patchline" : 				{
					"source" : [ "obj-33", 0 ],
					"destination" : [ "obj-4", 1 ],
					"hidden" : 0,
					"midpoints" : [  ]
				}

			}
, 			{
				"patchline" : 				{
					"source" : [ "obj-2", 0 ],
					"destination" : [ "obj-33", 0 ],
					"hidden" : 0,
					"midpoints" : [  ]
				}

			}
, 			{
				"patchline" : 				{
					"source" : [ "obj-45", 0 ],
					"destination" : [ "obj-14", 0 ],
					"hidden" : 0,
					"midpoints" : [  ]
				}

			}
, 			{
				"patchline" : 				{
					"source" : [ "obj-46", 0 ],
					"destination" : [ "obj-45", 0 ],
					"hidden" : 0,
					"midpoints" : [  ]
				}

			}
, 			{
				"patchline" : 				{
					"source" : [ "obj-47", 0 ],
					"destination" : [ "obj-17", 0 ],
					"hidden" : 0,
					"midpoints" : [  ]
				}

			}
 ]
	}

}
