{
	"patcher" : 	{
		"fileversion" : 1,
		"rect" : [ 476.0, 281.0, 706.0, 553.0 ],
		"bglocked" : 0,
		"defrect" : [ 476.0, 281.0, 706.0, 553.0 ],
		"openrect" : [ 0.0, 0.0, 0.0, 0.0 ],
		"openinpresentation" : 0,
		"default_fontsize" : 12.0,
		"default_fontface" : 0,
		"default_fontname" : "Arial",
		"gridonopen" : 0,
		"gridsize" : [ 15.0, 15.0 ],
		"gridsnaponopen" : 0,
		"toolbarvisible" : 1,
		"boxanimatetime" : 200,
		"imprint" : 0,
		"enablehscroll" : 1,
		"enablevscroll" : 1,
		"boxes" : [ 			{
				"box" : 				{
					"maxclass" : "newobj",
					"text" : "zl change",
					"numinlets" : 2,
					"patching_rect" : [ 5.0, 31.0, 62.0, 20.0 ],
					"id" : "obj-8",
					"numoutlets" : 2,
					"fontname" : "Arial",
					"outlettype" : [ "", "" ],
					"fontsize" : 12.0
				}

			}
, 			{
				"box" : 				{
					"maxclass" : "newobj",
					"text" : "unpack 0 0 0 0 0",
					"numinlets" : 1,
					"patching_rect" : [ 5.0, 59.0, 292.0, 20.0 ],
					"id" : "obj-4",
					"numoutlets" : 5,
					"fontname" : "Arial",
					"outlettype" : [ "int", "int", "int", "int", "int" ],
					"fontsize" : 12.0
				}

			}
, 			{
				"box" : 				{
					"maxclass" : "newobj",
					"text" : "r fileplay",
					"numinlets" : 0,
					"patching_rect" : [ 5.0, 2.0, 248.0, 20.0 ],
					"id" : "obj-1",
					"numoutlets" : 1,
					"fontname" : "Arial",
					"outlettype" : [ "" ],
					"fontsize" : 12.0
				}

			}
, 			{
				"box" : 				{
					"maxclass" : "comment",
					"text" : "7",
					"numinlets" : 1,
					"patching_rect" : [ 575.0, 537.0, 28.0, 34.0 ],
					"id" : "obj-45",
					"numoutlets" : 0,
					"fontname" : "Arial",
					"frgb" : [ 0.317647, 0.709804, 0.321569, 1.0 ],
					"textcolor" : [ 0.317647, 0.709804, 0.321569, 1.0 ],
					"fontface" : 1,
					"fontsize" : 24.0
				}

			}
, 			{
				"box" : 				{
					"maxclass" : "comment",
					"text" : "6",
					"numinlets" : 1,
					"patching_rect" : [ 631.0, 423.0, 28.0, 34.0 ],
					"id" : "obj-44",
					"numoutlets" : 0,
					"fontname" : "Arial",
					"frgb" : [ 0.317647, 0.709804, 0.321569, 1.0 ],
					"textcolor" : [ 0.317647, 0.709804, 0.321569, 1.0 ],
					"fontface" : 1,
					"fontsize" : 24.0
				}

			}
, 			{
				"box" : 				{
					"maxclass" : "comment",
					"text" : "5",
					"numinlets" : 1,
					"patching_rect" : [ 429.0, 366.0, 28.0, 34.0 ],
					"id" : "obj-43",
					"numoutlets" : 0,
					"fontname" : "Arial",
					"frgb" : [ 0.317647, 0.709804, 0.321569, 1.0 ],
					"textcolor" : [ 0.317647, 0.709804, 0.321569, 1.0 ],
					"fontface" : 1,
					"fontsize" : 24.0
				}

			}
, 			{
				"box" : 				{
					"maxclass" : "comment",
					"text" : "4",
					"numinlets" : 1,
					"patching_rect" : [ 560.0, 306.0, 28.0, 34.0 ],
					"id" : "obj-42",
					"numoutlets" : 0,
					"fontname" : "Arial",
					"frgb" : [ 0.317647, 0.709804, 0.321569, 1.0 ],
					"textcolor" : [ 0.317647, 0.709804, 0.321569, 1.0 ],
					"fontface" : 1,
					"fontsize" : 24.0
				}

			}
, 			{
				"box" : 				{
					"maxclass" : "comment",
					"text" : "3",
					"numinlets" : 1,
					"patching_rect" : [ 60.0, 295.0, 28.0, 34.0 ],
					"id" : "obj-41",
					"numoutlets" : 0,
					"fontname" : "Arial",
					"frgb" : [ 0.317647, 0.709804, 0.321569, 1.0 ],
					"textcolor" : [ 0.317647, 0.709804, 0.321569, 1.0 ],
					"fontface" : 1,
					"fontsize" : 24.0
				}

			}
, 			{
				"box" : 				{
					"maxclass" : "comment",
					"text" : "2",
					"numinlets" : 1,
					"patching_rect" : [ 42.0, 132.0, 28.0, 34.0 ],
					"id" : "obj-38",
					"numoutlets" : 0,
					"fontname" : "Arial",
					"frgb" : [ 0.317647, 0.709804, 0.321569, 1.0 ],
					"textcolor" : [ 0.317647, 0.709804, 0.321569, 1.0 ],
					"fontface" : 1,
					"fontsize" : 24.0
				}

			}
, 			{
				"box" : 				{
					"maxclass" : "comment",
					"text" : "For Tutorial visit:\nhttp://sccn.ucsd.edu/wiki/MoBI:_Audio",
					"linecount" : 2,
					"numinlets" : 1,
					"patching_rect" : [ 445.0, 74.0, 246.0, 39.0 ],
					"id" : "obj-17",
					"numoutlets" : 0,
					"fontname" : "Arial",
					"frgb" : [ 0.945098, 0.913725, 0.407843, 1.0 ],
					"textcolor" : [ 0.945098, 0.913725, 0.407843, 1.0 ],
					"fontsize" : 14.0
				}

			}
, 			{
				"box" : 				{
					"maxclass" : "panel",
					"bordercolor" : [ 0.984314, 0.019608, 0.019608, 1.0 ],
					"numinlets" : 1,
					"bgcolor" : [ 1.0, 0.337255, 0.619608, 1.0 ],
					"patching_rect" : [ 440.0, 66.0, 252.0, 55.0 ],
					"id" : "obj-19",
					"numoutlets" : 0
				}

			}
, 			{
				"box" : 				{
					"maxclass" : "comment",
					"text" : "Fileplay Module for DataRiver\nGrace Leslie, June 2010\ngleslie@ucsd.edu",
					"linecount" : 3,
					"numinlets" : 1,
					"patching_rect" : [ 16.0, 473.0, 335.0, 75.0 ],
					"id" : "obj-12",
					"numoutlets" : 0,
					"fontname" : "Arial",
					"frgb" : [ 0.945098, 0.913725, 0.407843, 1.0 ],
					"textcolor" : [ 0.945098, 0.913725, 0.407843, 1.0 ],
					"fontsize" : 20.0
				}

			}
, 			{
				"box" : 				{
					"maxclass" : "panel",
					"bordercolor" : [ 0.984314, 0.019608, 0.019608, 1.0 ],
					"numinlets" : 1,
					"bgcolor" : [ 1.0, 0.337255, 0.619608, 1.0 ],
					"patching_rect" : [ 10.0, 462.0, 326.0, 99.0 ],
					"id" : "obj-5",
					"numoutlets" : 0
				}

			}
, 			{
				"box" : 				{
					"maxclass" : "number",
					"numinlets" : 1,
					"patching_rect" : [ 279.0, 86.0, 50.0, 20.0 ],
					"id" : "obj-61",
					"numoutlets" : 2,
					"fontname" : "Arial",
					"outlettype" : [ "int", "bang" ],
					"fontsize" : 12.0
				}

			}
, 			{
				"box" : 				{
					"maxclass" : "comment",
					"text" : "VOL()",
					"numinlets" : 1,
					"patching_rect" : [ 279.0, 107.0, 44.0, 20.0 ],
					"id" : "obj-62",
					"numoutlets" : 0,
					"fontname" : "Arial",
					"fontsize" : 12.0
				}

			}
, 			{
				"box" : 				{
					"maxclass" : "newobj",
					"text" : "- 79.45",
					"numinlets" : 2,
					"patching_rect" : [ 410.0, 192.0, 100.0, 20.0 ],
					"id" : "obj-14",
					"numoutlets" : 1,
					"fontname" : "Arial",
					"outlettype" : [ "float" ],
					"fontsize" : 12.0
				}

			}
, 			{
				"box" : 				{
					"maxclass" : "newobj",
					"text" : "* 0.6207",
					"numinlets" : 2,
					"patching_rect" : [ 524.0, 165.0, 100.0, 20.0 ],
					"id" : "obj-13",
					"numoutlets" : 1,
					"fontname" : "Arial",
					"outlettype" : [ "float" ],
					"fontsize" : 12.0
				}

			}
, 			{
				"box" : 				{
					"maxclass" : "flonum",
					"numinlets" : 1,
					"patching_rect" : [ 410.0, 217.0, 50.0, 20.0 ],
					"id" : "obj-10",
					"numoutlets" : 2,
					"fontname" : "Arial",
					"outlettype" : [ "float", "bang" ],
					"fontsize" : 12.0
				}

			}
, 			{
				"box" : 				{
					"maxclass" : "newobj",
					"text" : "dbtoa",
					"numinlets" : 1,
					"patching_rect" : [ 410.0, 242.0, 100.0, 20.0 ],
					"id" : "obj-3",
					"numoutlets" : 1,
					"fontname" : "Arial",
					"outlettype" : [ "" ],
					"fontsize" : 12.0
				}

			}
, 			{
				"box" : 				{
					"maxclass" : "number",
					"numinlets" : 1,
					"patching_rect" : [ 210.0, 86.0, 50.0, 20.0 ],
					"id" : "obj-40",
					"numoutlets" : 2,
					"fontname" : "Arial",
					"outlettype" : [ "int", "bang" ],
					"fontsize" : 12.0
				}

			}
, 			{
				"box" : 				{
					"maxclass" : "comment",
					"text" : "<--receiving values",
					"numinlets" : 1,
					"patching_rect" : [ 319.0, 9.0, 112.0, 20.0 ],
					"id" : "obj-39",
					"numoutlets" : 0,
					"fontname" : "Arial",
					"fontsize" : 12.0
				}

			}
, 			{
				"box" : 				{
					"maxclass" : "gain~",
					"numinlets" : 2,
					"patching_rect" : [ 279.0, 138.0, 150.0, 19.0 ],
					"id" : "obj-37",
					"numoutlets" : 2,
					"outlettype" : [ "signal", "int" ]
				}

			}
, 			{
				"box" : 				{
					"maxclass" : "comment",
					"text" : "AZI()",
					"numinlets" : 1,
					"patching_rect" : [ 217.0, 107.0, 44.0, 20.0 ],
					"id" : "obj-36",
					"numoutlets" : 0,
					"fontname" : "Arial",
					"fontsize" : 12.0
				}

			}
, 			{
				"box" : 				{
					"maxclass" : "newobj",
					"text" : "loadbang",
					"numinlets" : 1,
					"patching_rect" : [ 153.0, 246.0, 60.0, 20.0 ],
					"id" : "obj-35",
					"numoutlets" : 1,
					"fontname" : "Arial",
					"outlettype" : [ "bang" ],
					"fontsize" : 12.0
				}

			}
, 			{
				"box" : 				{
					"maxclass" : "comment",
					"text" : "gain factor",
					"numinlets" : 1,
					"patching_rect" : [ 504.0, 284.0, 67.0, 20.0 ],
					"id" : "obj-34",
					"numoutlets" : 0,
					"fontname" : "Arial",
					"fontsize" : 12.0
				}

			}
, 			{
				"box" : 				{
					"maxclass" : "button",
					"numinlets" : 1,
					"patching_rect" : [ 153.0, 271.0, 20.0, 20.0 ],
					"id" : "obj-110",
					"numoutlets" : 1,
					"outlettype" : [ "bang" ]
				}

			}
, 			{
				"box" : 				{
					"maxclass" : "newobj",
					"text" : "define_loudspeakers 2 -30 0 30 60 90 120 150 180 -150 -120 -90 -60",
					"linecount" : 4,
					"numinlets" : 1,
					"patching_rect" : [ 153.0, 297.0, 123.0, 62.0 ],
					"id" : "obj-23",
					"numoutlets" : 1,
					"fontname" : "Arial",
					"outlettype" : [ "" ],
					"fontsize" : 12.0
				}

			}
, 			{
				"box" : 				{
					"maxclass" : "newobj",
					"text" : "t b i",
					"numinlets" : 1,
					"patching_rect" : [ 298.0, 336.0, 27.0, 17.0 ],
					"id" : "obj-75",
					"numoutlets" : 2,
					"fontname" : "Arial",
					"outlettype" : [ "bang", "int" ],
					"fontsize" : 9.0
				}

			}
, 			{
				"box" : 				{
					"maxclass" : "newobj",
					"text" : "t b i",
					"numinlets" : 1,
					"patching_rect" : [ 353.0, 336.0, 27.0, 17.0 ],
					"id" : "obj-27",
					"numoutlets" : 2,
					"fontname" : "Arial",
					"outlettype" : [ "bang", "int" ],
					"fontsize" : 9.0
				}

			}
, 			{
				"box" : 				{
					"maxclass" : "newobj",
					"text" : "t b i",
					"numinlets" : 1,
					"patching_rect" : [ 402.0, 340.0, 27.0, 17.0 ],
					"id" : "obj-79",
					"numoutlets" : 2,
					"fontname" : "Arial",
					"outlettype" : [ "bang", "int" ],
					"fontsize" : 9.0
				}

			}
, 			{
				"box" : 				{
					"maxclass" : "slider",
					"numinlets" : 1,
					"patching_rect" : [ 401.0, 315.0, 76.0, 20.0 ],
					"id" : "obj-28",
					"numoutlets" : 1,
					"orientation" : 1,
					"outlettype" : [ "" ],
					"size" : 101.0
				}

			}
, 			{
				"box" : 				{
					"maxclass" : "comment",
					"text" : "ele",
					"numinlets" : 1,
					"patching_rect" : [ 355.0, 298.0, 35.0, 20.0 ],
					"id" : "obj-86",
					"numoutlets" : 0,
					"fontname" : "Arial",
					"fontsize" : 12.0
				}

			}
, 			{
				"box" : 				{
					"maxclass" : "number",
					"htextcolor" : [ 0.870588, 0.870588, 0.870588, 1.0 ],
					"numinlets" : 1,
					"bgcolor" : [ 0.866667, 0.866667, 0.866667, 1.0 ],
					"patching_rect" : [ 352.0, 315.0, 40.0, 20.0 ],
					"triscale" : 0.9,
					"id" : "obj-87",
					"numoutlets" : 2,
					"fontname" : "Arial",
					"outlettype" : [ "int", "bang" ],
					"fontsize" : 12.0
				}

			}
, 			{
				"box" : 				{
					"maxclass" : "number",
					"htextcolor" : [ 0.870588, 0.870588, 0.870588, 1.0 ],
					"numinlets" : 1,
					"bgcolor" : [ 0.866667, 0.866667, 0.866667, 1.0 ],
					"patching_rect" : [ 297.0, 315.0, 42.0, 20.0 ],
					"triscale" : 0.9,
					"id" : "obj-88",
					"numoutlets" : 2,
					"fontname" : "Arial",
					"outlettype" : [ "int", "bang" ],
					"fontsize" : 12.0
				}

			}
, 			{
				"box" : 				{
					"maxclass" : "comment",
					"text" : "Panning direction",
					"numinlets" : 1,
					"patching_rect" : [ 298.0, 277.0, 108.0, 20.0 ],
					"id" : "obj-89",
					"numoutlets" : 0,
					"fontname" : "Arial",
					"fontsize" : 12.0
				}

			}
, 			{
				"box" : 				{
					"maxclass" : "comment",
					"text" : "azi",
					"numinlets" : 1,
					"patching_rect" : [ 303.0, 298.0, 32.0, 20.0 ],
					"id" : "obj-90",
					"numoutlets" : 0,
					"fontname" : "Arial",
					"fontsize" : 12.0
				}

			}
, 			{
				"box" : 				{
					"maxclass" : "comment",
					"text" : "spreading of the virtual source",
					"linecount" : 2,
					"numinlets" : 1,
					"patching_rect" : [ 400.0, 277.0, 98.0, 34.0 ],
					"id" : "obj-92",
					"numoutlets" : 0,
					"fontname" : "Arial",
					"fontsize" : 12.0
				}

			}
, 			{
				"box" : 				{
					"maxclass" : "number",
					"numinlets" : 1,
					"patching_rect" : [ 474.0, 428.0, 50.0, 20.0 ],
					"id" : "obj-71",
					"numoutlets" : 2,
					"fontname" : "Arial",
					"outlettype" : [ "int", "bang" ],
					"fontsize" : 12.0
				}

			}
, 			{
				"box" : 				{
					"maxclass" : "number",
					"numinlets" : 1,
					"patching_rect" : [ 421.0, 428.0, 50.0, 20.0 ],
					"id" : "obj-65",
					"numoutlets" : 2,
					"fontname" : "Arial",
					"outlettype" : [ "int", "bang" ],
					"fontsize" : 12.0
				}

			}
, 			{
				"box" : 				{
					"maxclass" : "number",
					"numinlets" : 1,
					"patching_rect" : [ 367.0, 427.0, 50.0, 20.0 ],
					"id" : "obj-59",
					"numoutlets" : 2,
					"fontname" : "Arial",
					"outlettype" : [ "int", "bang" ],
					"fontsize" : 12.0
				}

			}
, 			{
				"box" : 				{
					"maxclass" : "newobj",
					"text" : "p ls-delayss",
					"numinlets" : 12,
					"patching_rect" : [ 353.0, 501.0, 201.0, 17.0 ],
					"id" : "obj-54",
					"numoutlets" : 12,
					"fontname" : "Arial",
					"outlettype" : [ "signal", "signal", "signal", "signal", "signal", "signal", "signal", "signal", "signal", "signal", "signal", "signal" ],
					"fontsize" : 9.0,
					"patcher" : 					{
						"fileversion" : 1,
						"rect" : [ 10.0, 59.0, 989.0, 527.0 ],
						"bglocked" : 0,
						"defrect" : [ 10.0, 59.0, 989.0, 527.0 ],
						"openrect" : [ 0.0, 0.0, 0.0, 0.0 ],
						"openinpresentation" : 0,
						"default_fontsize" : 12.0,
						"default_fontface" : 0,
						"default_fontname" : "Arial",
						"gridonopen" : 0,
						"gridsize" : [ 15.0, 15.0 ],
						"gridsnaponopen" : 0,
						"toolbarvisible" : 1,
						"boxanimatetime" : 200,
						"imprint" : 0,
						"enablehscroll" : 1,
						"enablevscroll" : 1,
						"boxes" : [ 							{
								"box" : 								{
									"maxclass" : "newobj",
									"text" : "delay~ 0 0",
									"numinlets" : 2,
									"patching_rect" : [ 747.0, 175.0, 55.0, 17.0 ],
									"id" : "obj-31",
									"numoutlets" : 1,
									"fontname" : "Arial",
									"outlettype" : [ "signal" ],
									"fontsize" : 9.0
								}

							}
, 							{
								"box" : 								{
									"maxclass" : "newobj",
									"text" : "delay~ 0 0",
									"numinlets" : 2,
									"patching_rect" : [ 819.0, 204.0, 55.0, 17.0 ],
									"id" : "obj-32",
									"numoutlets" : 1,
									"fontname" : "Arial",
									"outlettype" : [ "signal" ],
									"fontsize" : 9.0
								}

							}
, 							{
								"box" : 								{
									"maxclass" : "outlet",
									"numinlets" : 1,
									"patching_rect" : [ 832.0, 253.0, 15.0, 15.0 ],
									"id" : "obj-33",
									"numoutlets" : 0,
									"comment" : ""
								}

							}
, 							{
								"box" : 								{
									"maxclass" : "outlet",
									"numinlets" : 1,
									"patching_rect" : [ 746.0, 251.0, 15.0, 15.0 ],
									"id" : "obj-34",
									"numoutlets" : 0,
									"comment" : ""
								}

							}
, 							{
								"box" : 								{
									"maxclass" : "inlet",
									"numinlets" : 0,
									"patching_rect" : [ 826.0, 65.0, 15.0, 15.0 ],
									"id" : "obj-35",
									"numoutlets" : 1,
									"outlettype" : [ "signal" ],
									"comment" : ""
								}

							}
, 							{
								"box" : 								{
									"maxclass" : "inlet",
									"numinlets" : 0,
									"patching_rect" : [ 751.0, 76.0, 15.0, 15.0 ],
									"id" : "obj-36",
									"numoutlets" : 1,
									"outlettype" : [ "signal" ],
									"comment" : ""
								}

							}
, 							{
								"box" : 								{
									"maxclass" : "newobj",
									"text" : "delay~ 0 0",
									"numinlets" : 2,
									"patching_rect" : [ 118.0, 147.0, 55.0, 17.0 ],
									"id" : "obj-1",
									"numoutlets" : 1,
									"fontname" : "Arial",
									"outlettype" : [ "signal" ],
									"fontsize" : 9.0
								}

							}
, 							{
								"box" : 								{
									"maxclass" : "newobj",
									"text" : "delay~ 0 0",
									"numinlets" : 2,
									"patching_rect" : [ 199.0, 143.0, 55.0, 17.0 ],
									"id" : "obj-2",
									"numoutlets" : 1,
									"fontname" : "Arial",
									"outlettype" : [ "signal" ],
									"fontsize" : 9.0
								}

							}
, 							{
								"box" : 								{
									"maxclass" : "newobj",
									"text" : "delay~ 0 0",
									"numinlets" : 2,
									"patching_rect" : [ 276.0, 117.0, 55.0, 17.0 ],
									"id" : "obj-3",
									"numoutlets" : 1,
									"fontname" : "Arial",
									"outlettype" : [ "signal" ],
									"fontsize" : 9.0
								}

							}
, 							{
								"box" : 								{
									"maxclass" : "newobj",
									"text" : "delay~ 0 0",
									"numinlets" : 2,
									"patching_rect" : [ 342.0, 146.0, 55.0, 17.0 ],
									"id" : "obj-4",
									"numoutlets" : 1,
									"fontname" : "Arial",
									"outlettype" : [ "signal" ],
									"fontsize" : 9.0
								}

							}
, 							{
								"box" : 								{
									"maxclass" : "newobj",
									"text" : "delay~ 0 0",
									"numinlets" : 2,
									"patching_rect" : [ 408.0, 178.0, 55.0, 17.0 ],
									"id" : "obj-5",
									"numoutlets" : 1,
									"fontname" : "Arial",
									"outlettype" : [ "signal" ],
									"fontsize" : 9.0
								}

							}
, 							{
								"box" : 								{
									"maxclass" : "newobj",
									"text" : "delay~ 0 0",
									"numinlets" : 2,
									"patching_rect" : [ 465.0, 109.0, 55.0, 17.0 ],
									"id" : "obj-6",
									"numoutlets" : 1,
									"fontname" : "Arial",
									"outlettype" : [ "signal" ],
									"fontsize" : 9.0
								}

							}
, 							{
								"box" : 								{
									"maxclass" : "newobj",
									"text" : "delay~ 0 0",
									"numinlets" : 2,
									"patching_rect" : [ 526.0, 140.0, 55.0, 17.0 ],
									"id" : "obj-7",
									"numoutlets" : 1,
									"fontname" : "Arial",
									"outlettype" : [ "signal" ],
									"fontsize" : 9.0
								}

							}
, 							{
								"box" : 								{
									"maxclass" : "newobj",
									"text" : "delay~ 0 0",
									"numinlets" : 2,
									"patching_rect" : [ 588.0, 169.0, 55.0, 17.0 ],
									"id" : "obj-8",
									"numoutlets" : 1,
									"fontname" : "Arial",
									"outlettype" : [ "signal" ],
									"fontsize" : 9.0
								}

							}
, 							{
								"box" : 								{
									"maxclass" : "newobj",
									"text" : "delay~ 0 0",
									"numinlets" : 2,
									"patching_rect" : [ 660.0, 198.0, 55.0, 17.0 ],
									"id" : "obj-9",
									"numoutlets" : 1,
									"fontname" : "Arial",
									"outlettype" : [ "signal" ],
									"fontsize" : 9.0
								}

							}
, 							{
								"box" : 								{
									"maxclass" : "newobj",
									"text" : "delay~ 0 0",
									"numinlets" : 2,
									"patching_rect" : [ 32.0, 161.0, 55.0, 17.0 ],
									"id" : "obj-10",
									"numoutlets" : 1,
									"fontname" : "Arial",
									"outlettype" : [ "signal" ],
									"fontsize" : 9.0
								}

							}
, 							{
								"box" : 								{
									"maxclass" : "outlet",
									"numinlets" : 1,
									"patching_rect" : [ 127.0, 251.0, 15.0, 15.0 ],
									"id" : "obj-11",
									"numoutlets" : 0,
									"comment" : ""
								}

							}
, 							{
								"box" : 								{
									"maxclass" : "outlet",
									"numinlets" : 1,
									"patching_rect" : [ 212.0, 244.0, 15.0, 15.0 ],
									"id" : "obj-12",
									"numoutlets" : 0,
									"comment" : ""
								}

							}
, 							{
								"box" : 								{
									"maxclass" : "outlet",
									"numinlets" : 1,
									"patching_rect" : [ 673.0, 247.0, 15.0, 15.0 ],
									"id" : "obj-13",
									"numoutlets" : 0,
									"comment" : ""
								}

							}
, 							{
								"box" : 								{
									"maxclass" : "outlet",
									"numinlets" : 1,
									"patching_rect" : [ 268.0, 238.0, 15.0, 15.0 ],
									"id" : "obj-14",
									"numoutlets" : 0,
									"comment" : ""
								}

							}
, 							{
								"box" : 								{
									"maxclass" : "outlet",
									"numinlets" : 1,
									"patching_rect" : [ 338.0, 240.0, 15.0, 15.0 ],
									"id" : "obj-15",
									"numoutlets" : 0,
									"comment" : ""
								}

							}
, 							{
								"box" : 								{
									"maxclass" : "outlet",
									"numinlets" : 1,
									"patching_rect" : [ 401.0, 238.0, 15.0, 15.0 ],
									"id" : "obj-16",
									"numoutlets" : 0,
									"comment" : ""
								}

							}
, 							{
								"box" : 								{
									"maxclass" : "outlet",
									"numinlets" : 1,
									"patching_rect" : [ 458.0, 242.0, 16.0, 16.0 ],
									"id" : "obj-17",
									"numoutlets" : 0,
									"comment" : ""
								}

							}
, 							{
								"box" : 								{
									"maxclass" : "outlet",
									"numinlets" : 1,
									"patching_rect" : [ 513.0, 246.0, 15.0, 15.0 ],
									"id" : "obj-18",
									"numoutlets" : 0,
									"comment" : ""
								}

							}
, 							{
								"box" : 								{
									"maxclass" : "outlet",
									"numinlets" : 1,
									"patching_rect" : [ 587.0, 245.0, 15.0, 15.0 ],
									"id" : "obj-19",
									"numoutlets" : 0,
									"comment" : ""
								}

							}
, 							{
								"box" : 								{
									"maxclass" : "outlet",
									"numinlets" : 1,
									"patching_rect" : [ 52.0, 252.0, 15.0, 15.0 ],
									"id" : "obj-20",
									"numoutlets" : 0,
									"comment" : ""
								}

							}
, 							{
								"box" : 								{
									"maxclass" : "inlet",
									"numinlets" : 0,
									"patching_rect" : [ 119.0, 68.0, 15.0, 15.0 ],
									"id" : "obj-21",
									"numoutlets" : 1,
									"outlettype" : [ "signal" ],
									"comment" : ""
								}

							}
, 							{
								"box" : 								{
									"maxclass" : "inlet",
									"numinlets" : 0,
									"patching_rect" : [ 523.0, 70.0, 15.0, 15.0 ],
									"id" : "obj-22",
									"numoutlets" : 1,
									"outlettype" : [ "signal" ],
									"comment" : ""
								}

							}
, 							{
								"box" : 								{
									"maxclass" : "inlet",
									"numinlets" : 0,
									"patching_rect" : [ 205.0, 70.0, 15.0, 15.0 ],
									"id" : "obj-23",
									"numoutlets" : 1,
									"outlettype" : [ "signal" ],
									"comment" : ""
								}

							}
, 							{
								"box" : 								{
									"maxclass" : "inlet",
									"numinlets" : 0,
									"patching_rect" : [ 280.0, 69.0, 15.0, 15.0 ],
									"id" : "obj-24",
									"numoutlets" : 1,
									"outlettype" : [ "signal" ],
									"comment" : ""
								}

							}
, 							{
								"box" : 								{
									"maxclass" : "inlet",
									"numinlets" : 0,
									"patching_rect" : [ 345.0, 67.0, 15.0, 15.0 ],
									"id" : "obj-25",
									"numoutlets" : 1,
									"outlettype" : [ "signal" ],
									"comment" : ""
								}

							}
, 							{
								"box" : 								{
									"maxclass" : "inlet",
									"numinlets" : 0,
									"patching_rect" : [ 406.0, 64.0, 15.0, 15.0 ],
									"id" : "obj-26",
									"numoutlets" : 1,
									"outlettype" : [ "signal" ],
									"comment" : ""
								}

							}
, 							{
								"box" : 								{
									"maxclass" : "inlet",
									"numinlets" : 0,
									"patching_rect" : [ 667.0, 59.0, 15.0, 15.0 ],
									"id" : "obj-27",
									"numoutlets" : 1,
									"outlettype" : [ "signal" ],
									"comment" : ""
								}

							}
, 							{
								"box" : 								{
									"maxclass" : "inlet",
									"numinlets" : 0,
									"patching_rect" : [ 592.0, 70.0, 15.0, 15.0 ],
									"id" : "obj-28",
									"numoutlets" : 1,
									"outlettype" : [ "signal" ],
									"comment" : ""
								}

							}
, 							{
								"box" : 								{
									"maxclass" : "inlet",
									"numinlets" : 0,
									"patching_rect" : [ 464.0, 74.0, 15.0, 15.0 ],
									"id" : "obj-29",
									"numoutlets" : 1,
									"outlettype" : [ "signal" ],
									"comment" : ""
								}

							}
, 							{
								"box" : 								{
									"maxclass" : "inlet",
									"numinlets" : 0,
									"patching_rect" : [ 42.0, 72.0, 15.0, 15.0 ],
									"id" : "obj-30",
									"numoutlets" : 1,
									"outlettype" : [ "signal" ],
									"comment" : ""
								}

							}
 ],
						"lines" : [ 							{
								"patchline" : 								{
									"source" : [ "obj-32", 0 ],
									"destination" : [ "obj-33", 0 ],
									"hidden" : 0,
									"midpoints" : [  ]
								}

							}
, 							{
								"patchline" : 								{
									"source" : [ "obj-35", 0 ],
									"destination" : [ "obj-32", 0 ],
									"hidden" : 0,
									"midpoints" : [  ]
								}

							}
, 							{
								"patchline" : 								{
									"source" : [ "obj-36", 0 ],
									"destination" : [ "obj-31", 0 ],
									"hidden" : 0,
									"midpoints" : [  ]
								}

							}
, 							{
								"patchline" : 								{
									"source" : [ "obj-31", 0 ],
									"destination" : [ "obj-34", 0 ],
									"hidden" : 0,
									"midpoints" : [  ]
								}

							}
, 							{
								"patchline" : 								{
									"source" : [ "obj-30", 0 ],
									"destination" : [ "obj-10", 0 ],
									"hidden" : 0,
									"midpoints" : [  ]
								}

							}
, 							{
								"patchline" : 								{
									"source" : [ "obj-10", 0 ],
									"destination" : [ "obj-20", 0 ],
									"hidden" : 0,
									"midpoints" : [  ]
								}

							}
, 							{
								"patchline" : 								{
									"source" : [ "obj-21", 0 ],
									"destination" : [ "obj-1", 0 ],
									"hidden" : 0,
									"midpoints" : [  ]
								}

							}
, 							{
								"patchline" : 								{
									"source" : [ "obj-1", 0 ],
									"destination" : [ "obj-11", 0 ],
									"hidden" : 0,
									"midpoints" : [  ]
								}

							}
, 							{
								"patchline" : 								{
									"source" : [ "obj-23", 0 ],
									"destination" : [ "obj-2", 0 ],
									"hidden" : 0,
									"midpoints" : [  ]
								}

							}
, 							{
								"patchline" : 								{
									"source" : [ "obj-2", 0 ],
									"destination" : [ "obj-12", 0 ],
									"hidden" : 0,
									"midpoints" : [  ]
								}

							}
, 							{
								"patchline" : 								{
									"source" : [ "obj-3", 0 ],
									"destination" : [ "obj-14", 0 ],
									"hidden" : 0,
									"midpoints" : [  ]
								}

							}
, 							{
								"patchline" : 								{
									"source" : [ "obj-24", 0 ],
									"destination" : [ "obj-3", 0 ],
									"hidden" : 0,
									"midpoints" : [  ]
								}

							}
, 							{
								"patchline" : 								{
									"source" : [ "obj-4", 0 ],
									"destination" : [ "obj-15", 0 ],
									"hidden" : 0,
									"midpoints" : [  ]
								}

							}
, 							{
								"patchline" : 								{
									"source" : [ "obj-25", 0 ],
									"destination" : [ "obj-4", 0 ],
									"hidden" : 0,
									"midpoints" : [  ]
								}

							}
, 							{
								"patchline" : 								{
									"source" : [ "obj-5", 0 ],
									"destination" : [ "obj-16", 0 ],
									"hidden" : 0,
									"midpoints" : [  ]
								}

							}
, 							{
								"patchline" : 								{
									"source" : [ "obj-26", 0 ],
									"destination" : [ "obj-5", 0 ],
									"hidden" : 0,
									"midpoints" : [  ]
								}

							}
, 							{
								"patchline" : 								{
									"source" : [ "obj-6", 0 ],
									"destination" : [ "obj-17", 0 ],
									"hidden" : 0,
									"midpoints" : [  ]
								}

							}
, 							{
								"patchline" : 								{
									"source" : [ "obj-29", 0 ],
									"destination" : [ "obj-6", 0 ],
									"hidden" : 0,
									"midpoints" : [  ]
								}

							}
, 							{
								"patchline" : 								{
									"source" : [ "obj-7", 0 ],
									"destination" : [ "obj-18", 0 ],
									"hidden" : 0,
									"midpoints" : [  ]
								}

							}
, 							{
								"patchline" : 								{
									"source" : [ "obj-22", 0 ],
									"destination" : [ "obj-7", 0 ],
									"hidden" : 0,
									"midpoints" : [  ]
								}

							}
, 							{
								"patchline" : 								{
									"source" : [ "obj-8", 0 ],
									"destination" : [ "obj-19", 0 ],
									"hidden" : 0,
									"midpoints" : [  ]
								}

							}
, 							{
								"patchline" : 								{
									"source" : [ "obj-28", 0 ],
									"destination" : [ "obj-8", 0 ],
									"hidden" : 0,
									"midpoints" : [  ]
								}

							}
, 							{
								"patchline" : 								{
									"source" : [ "obj-27", 0 ],
									"destination" : [ "obj-9", 0 ],
									"hidden" : 0,
									"midpoints" : [  ]
								}

							}
, 							{
								"patchline" : 								{
									"source" : [ "obj-9", 0 ],
									"destination" : [ "obj-13", 0 ],
									"hidden" : 0,
									"midpoints" : [  ]
								}

							}
 ]
					}
,
					"saved_object_attributes" : 					{
						"default_fontface" : 0,
						"default_fontname" : "Arial",
						"fontname" : "Arial",
						"default_fontsize" : 12.0,
						"globalpatchername" : "",
						"fontface" : 0,
						"fontsize" : 12.0
					}

				}

			}
, 			{
				"box" : 				{
					"maxclass" : "newobj",
					"text" : "matrix~ 1 12 smooth",
					"numinlets" : 1,
					"patching_rect" : [ 353.0, 458.0, 181.0, 20.0 ],
					"id" : "obj-51",
					"numoutlets" : 13,
					"fontname" : "Arial",
					"outlettype" : [ "signal", "signal", "signal", "signal", "signal", "signal", "signal", "signal", "signal", "signal", "signal", "signal", "list" ],
					"fontsize" : 12.0
				}

			}
, 			{
				"box" : 				{
					"maxclass" : "flonum",
					"numinlets" : 1,
					"patching_rect" : [ 508.0, 314.0, 50.0, 20.0 ],
					"id" : "obj-29",
					"numoutlets" : 2,
					"fontname" : "Arial",
					"outlettype" : [ "float", "bang" ],
					"fontsize" : 12.0
				}

			}
, 			{
				"box" : 				{
					"maxclass" : "newobj",
					"text" : "vbap 0 0",
					"numinlets" : 5,
					"patching_rect" : [ 353.0, 373.0, 73.0, 20.0 ],
					"id" : "obj-6",
					"numoutlets" : 5,
					"fontname" : "Arial",
					"outlettype" : [ "list", "int", "int", "int", "float" ],
					"fontsize" : 12.0
				}

			}
, 			{
				"box" : 				{
					"maxclass" : "message",
					"text" : "stop",
					"numinlets" : 2,
					"patching_rect" : [ 578.0, 479.0, 33.0, 18.0 ],
					"id" : "obj-30",
					"numoutlets" : 1,
					"fontname" : "Arial",
					"outlettype" : [ "" ],
					"fontsize" : 12.0
				}

			}
, 			{
				"box" : 				{
					"maxclass" : "message",
					"text" : "start",
					"numinlets" : 2,
					"patching_rect" : [ 610.0, 458.0, 34.0, 18.0 ],
					"id" : "obj-31",
					"numoutlets" : 1,
					"fontname" : "Arial",
					"outlettype" : [ "" ],
					"fontsize" : 12.0
				}

			}
, 			{
				"box" : 				{
					"maxclass" : "newobj",
					"text" : "dac~ 7 8 9 10 11 12 1 2 3 4 5 6",
					"numinlets" : 12,
					"patching_rect" : [ 353.0, 541.0, 221.0, 20.0 ],
					"id" : "obj-33",
					"numoutlets" : 0,
					"fontname" : "Arial",
					"fontsize" : 12.0
				}

			}
, 			{
				"box" : 				{
					"maxclass" : "newobj",
					"text" : "select 0",
					"numinlets" : 2,
					"patching_rect" : [ 82.0, 163.0, 52.0, 20.0 ],
					"id" : "obj-20",
					"numoutlets" : 2,
					"fontname" : "Arial",
					"outlettype" : [ "bang", "" ],
					"fontsize" : 12.0
				}

			}
, 			{
				"box" : 				{
					"maxclass" : "toggle",
					"numinlets" : 1,
					"patching_rect" : [ 148.0, 133.0, 20.0, 20.0 ],
					"id" : "obj-18",
					"numoutlets" : 1,
					"outlettype" : [ "int" ]
				}

			}
, 			{
				"box" : 				{
					"maxclass" : "newobj",
					"text" : "gate",
					"numinlets" : 2,
					"patching_rect" : [ 148.0, 162.0, 34.0, 20.0 ],
					"id" : "obj-16",
					"numoutlets" : 1,
					"fontname" : "Arial",
					"outlettype" : [ "" ],
					"fontsize" : 12.0
				}

			}
, 			{
				"box" : 				{
					"maxclass" : "newobj",
					"text" : "t b i",
					"numinlets" : 1,
					"patching_rect" : [ 5.0, 139.0, 32.5, 20.0 ],
					"id" : "obj-15",
					"numoutlets" : 2,
					"fontname" : "Arial",
					"outlettype" : [ "bang", "int" ],
					"fontsize" : 12.0
				}

			}
, 			{
				"box" : 				{
					"maxclass" : "message",
					"text" : "0",
					"numinlets" : 2,
					"patching_rect" : [ 82.0, 190.0, 32.5, 18.0 ],
					"id" : "obj-11",
					"numoutlets" : 1,
					"fontname" : "Arial",
					"outlettype" : [ "" ],
					"fontsize" : 12.0
				}

			}
, 			{
				"box" : 				{
					"maxclass" : "message",
					"text" : "1",
					"numinlets" : 2,
					"patching_rect" : [ 148.0, 191.0, 32.5, 18.0 ],
					"id" : "obj-9",
					"numoutlets" : 1,
					"fontname" : "Arial",
					"outlettype" : [ "" ],
					"fontsize" : 12.0
				}

			}
, 			{
				"box" : 				{
					"maxclass" : "message",
					"text" : "open $1",
					"numinlets" : 2,
					"patching_rect" : [ 19.0, 239.0, 54.0, 18.0 ],
					"id" : "obj-7",
					"numoutlets" : 1,
					"fontname" : "Arial",
					"outlettype" : [ "" ],
					"fontsize" : 12.0
				}

			}
, 			{
				"box" : 				{
					"maxclass" : "newobj",
					"text" : "sfplay~ 1",
					"numinlets" : 2,
					"patching_rect" : [ 82.0, 272.0, 59.0, 20.0 ],
					"id" : "obj-2",
					"numoutlets" : 2,
					"fontname" : "Arial",
					"outlettype" : [ "signal", "bang" ],
					"fontsize" : 12.0,
					"save" : [ "#N", "sfplay~", "", 1, 120960, 0, "", ";" ]
				}

			}
, 			{
				"box" : 				{
					"maxclass" : "newobj",
					"text" : "sprintf Macintosh_HD/Users/grace/Desktop/JulyMaze/soundfiles/sound%i.wav",
					"numinlets" : 1,
					"patching_rect" : [ 19.0, 166.0, 426.0, 20.0 ],
					"id" : "obj-148",
					"numoutlets" : 1,
					"fontname" : "Arial",
					"outlettype" : [ "" ],
					"fontsize" : 12.0
				}

			}
, 			{
				"box" : 				{
					"maxclass" : "button",
					"numinlets" : 1,
					"patching_rect" : [ 299.0, 9.0, 20.0, 20.0 ],
					"id" : "obj-68",
					"numoutlets" : 1,
					"outlettype" : [ "bang" ]
				}

			}
, 			{
				"box" : 				{
					"maxclass" : "number",
					"numinlets" : 1,
					"patching_rect" : [ 5.0, 86.0, 49.0, 20.0 ],
					"id" : "obj-60",
					"numoutlets" : 2,
					"fontname" : "Arial",
					"outlettype" : [ "int", "bang" ],
					"fontsize" : 12.0
				}

			}
, 			{
				"box" : 				{
					"maxclass" : "number",
					"numinlets" : 1,
					"patching_rect" : [ 73.0, 86.0, 50.0, 20.0 ],
					"id" : "obj-58",
					"numoutlets" : 2,
					"fontname" : "Arial",
					"outlettype" : [ "int", "bang" ],
					"fontsize" : 12.0
				}

			}
, 			{
				"box" : 				{
					"maxclass" : "number",
					"numinlets" : 1,
					"patching_rect" : [ 142.0, 86.0, 50.0, 20.0 ],
					"id" : "obj-55",
					"numoutlets" : 2,
					"fontname" : "Arial",
					"outlettype" : [ "int", "bang" ],
					"fontsize" : 12.0
				}

			}
, 			{
				"box" : 				{
					"maxclass" : "comment",
					"text" : "LOOP()",
					"numinlets" : 1,
					"patching_rect" : [ 149.0, 107.0, 50.0, 20.0 ],
					"id" : "obj-26",
					"numoutlets" : 0,
					"fontname" : "Arial",
					"fontsize" : 12.0
				}

			}
, 			{
				"box" : 				{
					"maxclass" : "comment",
					"text" : "ON()",
					"numinlets" : 1,
					"patching_rect" : [ 89.0, 107.0, 43.0, 20.0 ],
					"id" : "obj-25",
					"numoutlets" : 0,
					"fontname" : "Arial",
					"fontsize" : 12.0
				}

			}
, 			{
				"box" : 				{
					"maxclass" : "comment",
					"text" : "FILE()",
					"numinlets" : 1,
					"patching_rect" : [ 14.0, 107.0, 44.0, 20.0 ],
					"id" : "obj-21",
					"numoutlets" : 0,
					"fontname" : "Arial",
					"fontsize" : 12.0
				}

			}
 ],
		"lines" : [ 			{
				"patchline" : 				{
					"source" : [ "obj-8", 0 ],
					"destination" : [ "obj-4", 0 ],
					"hidden" : 0,
					"midpoints" : [  ]
				}

			}
, 			{
				"patchline" : 				{
					"source" : [ "obj-1", 0 ],
					"destination" : [ "obj-8", 0 ],
					"hidden" : 0,
					"midpoints" : [  ]
				}

			}
, 			{
				"patchline" : 				{
					"source" : [ "obj-4", 0 ],
					"destination" : [ "obj-60", 0 ],
					"hidden" : 0,
					"midpoints" : [  ]
				}

			}
, 			{
				"patchline" : 				{
					"source" : [ "obj-4", 1 ],
					"destination" : [ "obj-58", 0 ],
					"hidden" : 0,
					"midpoints" : [  ]
				}

			}
, 			{
				"patchline" : 				{
					"source" : [ "obj-4", 2 ],
					"destination" : [ "obj-55", 0 ],
					"hidden" : 0,
					"midpoints" : [  ]
				}

			}
, 			{
				"patchline" : 				{
					"source" : [ "obj-4", 3 ],
					"destination" : [ "obj-40", 0 ],
					"hidden" : 0,
					"midpoints" : [  ]
				}

			}
, 			{
				"patchline" : 				{
					"source" : [ "obj-4", 4 ],
					"destination" : [ "obj-61", 0 ],
					"hidden" : 0,
					"midpoints" : [  ]
				}

			}
, 			{
				"patchline" : 				{
					"source" : [ "obj-40", 0 ],
					"destination" : [ "obj-88", 0 ],
					"hidden" : 0,
					"midpoints" : [ 219.5, 268.0, 306.5, 268.0 ]
				}

			}
, 			{
				"patchline" : 				{
					"source" : [ "obj-35", 0 ],
					"destination" : [ "obj-88", 0 ],
					"hidden" : 0,
					"midpoints" : [ 162.5, 268.5, 306.5, 268.5 ]
				}

			}
, 			{
				"patchline" : 				{
					"source" : [ "obj-7", 0 ],
					"destination" : [ "obj-2", 0 ],
					"hidden" : 0,
					"midpoints" : [ 28.5, 266.5, 91.5, 266.5 ]
				}

			}
, 			{
				"patchline" : 				{
					"source" : [ "obj-9", 0 ],
					"destination" : [ "obj-2", 0 ],
					"hidden" : 0,
					"midpoints" : [ 157.5, 213.5, 91.5, 213.5 ]
				}

			}
, 			{
				"patchline" : 				{
					"source" : [ "obj-11", 0 ],
					"destination" : [ "obj-2", 0 ],
					"hidden" : 0,
					"midpoints" : [ 91.5, 213.5, 91.5, 213.5 ]
				}

			}
, 			{
				"patchline" : 				{
					"source" : [ "obj-2", 0 ],
					"destination" : [ "obj-51", 0 ],
					"hidden" : 0,
					"midpoints" : [ 91.5, 447.0, 362.5, 447.0 ]
				}

			}
, 			{
				"patchline" : 				{
					"source" : [ "obj-35", 0 ],
					"destination" : [ "obj-110", 0 ],
					"hidden" : 0,
					"midpoints" : [  ]
				}

			}
, 			{
				"patchline" : 				{
					"source" : [ "obj-31", 0 ],
					"destination" : [ "obj-33", 0 ],
					"hidden" : 0,
					"midpoints" : [ 619.5, 528.0, 362.5, 528.0 ]
				}

			}
, 			{
				"patchline" : 				{
					"source" : [ "obj-30", 0 ],
					"destination" : [ "obj-33", 0 ],
					"hidden" : 0,
					"midpoints" : [ 587.5, 528.0, 362.5, 528.0 ]
				}

			}
, 			{
				"patchline" : 				{
					"source" : [ "obj-54", 0 ],
					"destination" : [ "obj-33", 0 ],
					"hidden" : 0,
					"midpoints" : [  ]
				}

			}
, 			{
				"patchline" : 				{
					"source" : [ "obj-54", 1 ],
					"destination" : [ "obj-33", 1 ],
					"hidden" : 0,
					"midpoints" : [  ]
				}

			}
, 			{
				"patchline" : 				{
					"source" : [ "obj-54", 2 ],
					"destination" : [ "obj-33", 2 ],
					"hidden" : 0,
					"midpoints" : [  ]
				}

			}
, 			{
				"patchline" : 				{
					"source" : [ "obj-54", 3 ],
					"destination" : [ "obj-33", 3 ],
					"hidden" : 0,
					"midpoints" : [  ]
				}

			}
, 			{
				"patchline" : 				{
					"source" : [ "obj-54", 4 ],
					"destination" : [ "obj-33", 4 ],
					"hidden" : 0,
					"midpoints" : [  ]
				}

			}
, 			{
				"patchline" : 				{
					"source" : [ "obj-54", 5 ],
					"destination" : [ "obj-33", 5 ],
					"hidden" : 0,
					"midpoints" : [  ]
				}

			}
, 			{
				"patchline" : 				{
					"source" : [ "obj-54", 6 ],
					"destination" : [ "obj-33", 6 ],
					"hidden" : 0,
					"midpoints" : [  ]
				}

			}
, 			{
				"patchline" : 				{
					"source" : [ "obj-54", 7 ],
					"destination" : [ "obj-33", 7 ],
					"hidden" : 0,
					"midpoints" : [  ]
				}

			}
, 			{
				"patchline" : 				{
					"source" : [ "obj-54", 8 ],
					"destination" : [ "obj-33", 8 ],
					"hidden" : 0,
					"midpoints" : [  ]
				}

			}
, 			{
				"patchline" : 				{
					"source" : [ "obj-54", 9 ],
					"destination" : [ "obj-33", 9 ],
					"hidden" : 0,
					"midpoints" : [  ]
				}

			}
, 			{
				"patchline" : 				{
					"source" : [ "obj-54", 10 ],
					"destination" : [ "obj-33", 10 ],
					"hidden" : 0,
					"midpoints" : [  ]
				}

			}
, 			{
				"patchline" : 				{
					"source" : [ "obj-54", 11 ],
					"destination" : [ "obj-33", 11 ],
					"hidden" : 0,
					"midpoints" : [  ]
				}

			}
, 			{
				"patchline" : 				{
					"source" : [ "obj-110", 0 ],
					"destination" : [ "obj-23", 0 ],
					"hidden" : 0,
					"midpoints" : [  ]
				}

			}
, 			{
				"patchline" : 				{
					"source" : [ "obj-23", 0 ],
					"destination" : [ "obj-6", 0 ],
					"hidden" : 0,
					"midpoints" : [ 162.5, 364.5, 362.5, 364.5 ]
				}

			}
, 			{
				"patchline" : 				{
					"source" : [ "obj-79", 0 ],
					"destination" : [ "obj-6", 0 ],
					"hidden" : 0,
					"midpoints" : [ 411.5, 364.5, 362.5, 364.5 ]
				}

			}
, 			{
				"patchline" : 				{
					"source" : [ "obj-79", 1 ],
					"destination" : [ "obj-6", 3 ],
					"hidden" : 0,
					"midpoints" : [ 419.5, 364.5, 403.0, 364.5 ]
				}

			}
, 			{
				"patchline" : 				{
					"source" : [ "obj-27", 0 ],
					"destination" : [ "obj-6", 0 ],
					"hidden" : 0,
					"midpoints" : [ 362.5, 362.5, 362.5, 362.5 ]
				}

			}
, 			{
				"patchline" : 				{
					"source" : [ "obj-27", 1 ],
					"destination" : [ "obj-6", 2 ],
					"hidden" : 0,
					"midpoints" : [ 370.5, 364.5, 389.5, 364.5 ]
				}

			}
, 			{
				"patchline" : 				{
					"source" : [ "obj-75", 0 ],
					"destination" : [ "obj-6", 0 ],
					"hidden" : 0,
					"midpoints" : [ 307.5, 364.5, 362.5, 364.5 ]
				}

			}
, 			{
				"patchline" : 				{
					"source" : [ "obj-75", 1 ],
					"destination" : [ "obj-6", 1 ],
					"hidden" : 0,
					"midpoints" : [ 315.5, 364.5, 376.0, 364.5 ]
				}

			}
, 			{
				"patchline" : 				{
					"source" : [ "obj-88", 0 ],
					"destination" : [ "obj-75", 0 ],
					"hidden" : 1,
					"midpoints" : [  ]
				}

			}
, 			{
				"patchline" : 				{
					"source" : [ "obj-87", 0 ],
					"destination" : [ "obj-27", 0 ],
					"hidden" : 1,
					"midpoints" : [  ]
				}

			}
, 			{
				"patchline" : 				{
					"source" : [ "obj-28", 0 ],
					"destination" : [ "obj-79", 0 ],
					"hidden" : 1,
					"midpoints" : [  ]
				}

			}
, 			{
				"patchline" : 				{
					"source" : [ "obj-6", 3 ],
					"destination" : [ "obj-71", 0 ],
					"hidden" : 0,
					"midpoints" : [  ]
				}

			}
, 			{
				"patchline" : 				{
					"source" : [ "obj-6", 2 ],
					"destination" : [ "obj-65", 0 ],
					"hidden" : 0,
					"midpoints" : [  ]
				}

			}
, 			{
				"patchline" : 				{
					"source" : [ "obj-6", 1 ],
					"destination" : [ "obj-59", 0 ],
					"hidden" : 0,
					"midpoints" : [  ]
				}

			}
, 			{
				"patchline" : 				{
					"source" : [ "obj-51", 11 ],
					"destination" : [ "obj-54", 11 ],
					"hidden" : 0,
					"midpoints" : [  ]
				}

			}
, 			{
				"patchline" : 				{
					"source" : [ "obj-51", 10 ],
					"destination" : [ "obj-54", 10 ],
					"hidden" : 0,
					"midpoints" : [  ]
				}

			}
, 			{
				"patchline" : 				{
					"source" : [ "obj-51", 9 ],
					"destination" : [ "obj-54", 9 ],
					"hidden" : 0,
					"midpoints" : [  ]
				}

			}
, 			{
				"patchline" : 				{
					"source" : [ "obj-51", 8 ],
					"destination" : [ "obj-54", 8 ],
					"hidden" : 0,
					"midpoints" : [  ]
				}

			}
, 			{
				"patchline" : 				{
					"source" : [ "obj-51", 7 ],
					"destination" : [ "obj-54", 7 ],
					"hidden" : 0,
					"midpoints" : [  ]
				}

			}
, 			{
				"patchline" : 				{
					"source" : [ "obj-51", 6 ],
					"destination" : [ "obj-54", 6 ],
					"hidden" : 0,
					"midpoints" : [  ]
				}

			}
, 			{
				"patchline" : 				{
					"source" : [ "obj-51", 5 ],
					"destination" : [ "obj-54", 5 ],
					"hidden" : 0,
					"midpoints" : [  ]
				}

			}
, 			{
				"patchline" : 				{
					"source" : [ "obj-51", 4 ],
					"destination" : [ "obj-54", 4 ],
					"hidden" : 0,
					"midpoints" : [  ]
				}

			}
, 			{
				"patchline" : 				{
					"source" : [ "obj-51", 3 ],
					"destination" : [ "obj-54", 3 ],
					"hidden" : 0,
					"midpoints" : [  ]
				}

			}
, 			{
				"patchline" : 				{
					"source" : [ "obj-51", 2 ],
					"destination" : [ "obj-54", 2 ],
					"hidden" : 0,
					"midpoints" : [  ]
				}

			}
, 			{
				"patchline" : 				{
					"source" : [ "obj-51", 1 ],
					"destination" : [ "obj-54", 1 ],
					"hidden" : 0,
					"midpoints" : [  ]
				}

			}
, 			{
				"patchline" : 				{
					"source" : [ "obj-51", 0 ],
					"destination" : [ "obj-54", 0 ],
					"hidden" : 0,
					"midpoints" : [  ]
				}

			}
, 			{
				"patchline" : 				{
					"source" : [ "obj-6", 0 ],
					"destination" : [ "obj-51", 0 ],
					"hidden" : 0,
					"midpoints" : [  ]
				}

			}
, 			{
				"patchline" : 				{
					"source" : [ "obj-29", 0 ],
					"destination" : [ "obj-6", 4 ],
					"hidden" : 0,
					"midpoints" : [ 517.5, 363.0, 416.5, 363.0 ]
				}

			}
, 			{
				"patchline" : 				{
					"source" : [ "obj-20", 0 ],
					"destination" : [ "obj-11", 0 ],
					"hidden" : 0,
					"midpoints" : [  ]
				}

			}
, 			{
				"patchline" : 				{
					"source" : [ "obj-58", 0 ],
					"destination" : [ "obj-20", 0 ],
					"hidden" : 0,
					"midpoints" : [  ]
				}

			}
, 			{
				"patchline" : 				{
					"source" : [ "obj-16", 0 ],
					"destination" : [ "obj-9", 0 ],
					"hidden" : 0,
					"midpoints" : [  ]
				}

			}
, 			{
				"patchline" : 				{
					"source" : [ "obj-18", 0 ],
					"destination" : [ "obj-16", 0 ],
					"hidden" : 0,
					"midpoints" : [  ]
				}

			}
, 			{
				"patchline" : 				{
					"source" : [ "obj-55", 0 ],
					"destination" : [ "obj-18", 0 ],
					"hidden" : 0,
					"midpoints" : [  ]
				}

			}
, 			{
				"patchline" : 				{
					"source" : [ "obj-60", 0 ],
					"destination" : [ "obj-15", 0 ],
					"hidden" : 0,
					"midpoints" : [  ]
				}

			}
, 			{
				"patchline" : 				{
					"source" : [ "obj-10", 0 ],
					"destination" : [ "obj-3", 0 ],
					"hidden" : 0,
					"midpoints" : [  ]
				}

			}
, 			{
				"patchline" : 				{
					"source" : [ "obj-37", 1 ],
					"destination" : [ "obj-13", 0 ],
					"hidden" : 0,
					"midpoints" : [  ]
				}

			}
, 			{
				"patchline" : 				{
					"source" : [ "obj-13", 0 ],
					"destination" : [ "obj-14", 0 ],
					"hidden" : 0,
					"midpoints" : [  ]
				}

			}
, 			{
				"patchline" : 				{
					"source" : [ "obj-14", 0 ],
					"destination" : [ "obj-10", 0 ],
					"hidden" : 0,
					"midpoints" : [  ]
				}

			}
, 			{
				"patchline" : 				{
					"source" : [ "obj-15", 0 ],
					"destination" : [ "obj-9", 0 ],
					"hidden" : 0,
					"midpoints" : [ 14.5, 187.0, 157.5, 187.0 ]
				}

			}
, 			{
				"patchline" : 				{
					"source" : [ "obj-61", 0 ],
					"destination" : [ "obj-37", 0 ],
					"hidden" : 0,
					"midpoints" : [  ]
				}

			}
, 			{
				"patchline" : 				{
					"source" : [ "obj-3", 0 ],
					"destination" : [ "obj-29", 0 ],
					"hidden" : 0,
					"midpoints" : [ 419.5, 270.5, 517.5, 270.5 ]
				}

			}
, 			{
				"patchline" : 				{
					"source" : [ "obj-2", 1 ],
					"destination" : [ "obj-16", 1 ],
					"hidden" : 0,
					"midpoints" : [ 131.5, 223.0, 190.0, 223.0, 190.0, 152.0, 172.5, 152.0 ]
				}

			}
, 			{
				"patchline" : 				{
					"source" : [ "obj-15", 1 ],
					"destination" : [ "obj-148", 0 ],
					"hidden" : 0,
					"midpoints" : [  ]
				}

			}
, 			{
				"patchline" : 				{
					"source" : [ "obj-148", 0 ],
					"destination" : [ "obj-7", 0 ],
					"hidden" : 0,
					"midpoints" : [  ]
				}

			}
 ]
	}

}
